<svg version="1.1" id="Layer_1" xmlns="http://www.w3.org/2000/svg" xmlns:xlink="http://www.w3.org/1999/xlink" x="0px" y="0px"
	 width="100%" viewBox="0 0 298 369" enable-background="new 0 0 298 369" xml:space="preserve">
<path fill="#F7F7F7" opacity="000000" stroke="none" 
	d="
M150.000000,370.000000 
	C100.000000,370.000000 50.500000,370.000000 1.000000,370.000000 
	C1.000000,247.000000 1.000000,124.000000 1.000000,1.000000 
	C100.333336,1.000000 199.666672,1.000000 299.000000,1.000000 
	C299.000000,124.000000 299.000000,247.000000 299.000000,370.000000 
	C249.500000,370.000000 200.000000,370.000000 150.000000,370.000000 
M161.916367,336.417542 
	C189.397919,286.682495 216.920898,236.970291 244.342529,187.202209 
	C256.960632,164.301376 261.020538,139.741470 255.262878,114.350807 
	C245.691986,72.144264 219.734879,44.563950 177.913620,32.744308 
	C137.288757,21.262794 91.710068,36.669910 66.730911,70.725967 
	C39.551483,107.781822 36.690380,147.356476 58.178665,187.886490 
	C77.477547,224.287003 97.921585,260.080292 117.853767,296.145172 
	C126.533730,311.850464 135.073196,327.635956 143.996948,343.201324 
	C145.386490,345.625031 148.242615,348.053040 150.868011,348.721344 
	C154.626633,349.678101 156.570374,346.190704 158.186218,343.173584 
	C159.284561,341.122711 160.434570,339.099518 161.916367,336.417542 
z"/>
<path fill="#010101" opacity="1.000000" stroke="none" 
	d="
M161.738922,336.740753 
	C160.434570,339.099518 159.284561,341.122711 158.186218,343.173584 
	C156.570374,346.190704 154.626633,349.678101 150.868011,348.721344 
	C148.242615,348.053040 145.386490,345.625031 143.996948,343.201324 
	C135.073196,327.635956 126.533730,311.850464 117.853767,296.145172 
	C97.921585,260.080292 77.477547,224.287003 58.178665,187.886490 
	C36.690380,147.356476 39.551483,107.781822 66.730911,70.725967 
	C91.710068,36.669910 137.288757,21.262794 177.913620,32.744308 
	C219.734879,44.563950 245.691986,72.144264 255.262878,114.350807 
	C261.020538,139.741470 256.960632,164.301376 244.342529,187.202209 
	C216.920898,236.970291 189.397919,286.682495 161.738922,336.740753 
M185.468338,95.007538 
	C167.937332,81.245056 148.676514,78.135551 128.474533,87.591530 
	C108.882126,96.762177 98.521370,112.899742 97.875626,134.666992 
	C96.832756,169.820740 130.779633,196.516235 164.338425,187.145065 
	C184.910965,181.400269 198.171967,168.018906 202.841293,147.403625 
	C207.417297,127.200401 201.451614,109.602692 185.468338,95.007538 
z"/>
<path fill="#F6F6F6" opacity="1.000000" stroke="none" 
	d="
M185.723877,95.253952 
	C201.451614,109.602692 207.417297,127.200401 202.841293,147.403625 
	C198.171967,168.018906 184.910965,181.400269 164.338425,187.145065 
	C130.779633,196.516235 96.832756,169.820740 97.875626,134.666992 
	C98.521370,112.899742 108.882126,96.762177 128.474533,87.591530 
	C148.676514,78.135551 167.937332,81.245056 185.723877,95.253952 
z"/>
</svg>